M48
; DRILL file {KiCad 5.1.5+dfsg1-2build2} date Sa 16 Mai 2020 18:58:04 CEST
; FORMAT={-:-/ absolute / inch / decimal}
; #@! TF.CreationDate,2020-05-16T18:58:04+02:00
; #@! TF.GenerationSoftware,Kicad,Pcbnew,5.1.5+dfsg1-2build2
FMAT,2
INCH
T1C0.0157
T2C0.0394
T3C0.0598
%
G90
G05
T1
X2.72Y-2.1
X2.735Y-2.335
X2.9706Y-2.1694
X3.08Y-1.95
T2
X3.355Y-1.855
X3.355Y-1.955
X3.355Y-2.055
X3.355Y-2.155
X3.455Y-1.855
X3.455Y-1.955
X3.455Y-2.055
X3.455Y-2.155
X3.61Y-2.44
X3.71Y-2.44
X3.81Y-2.44
X3.91Y-2.44
X2.84Y-2.44
X2.94Y-2.44
X3.04Y-2.44
X3.14Y-2.44
X3.24Y-2.44
X3.34Y-2.44
T3
X2.545Y-2.135
X2.545Y-2.335
T0
M30
