G04 #@! TF.GenerationSoftware,KiCad,Pcbnew,5.1.5+dfsg1-2build2*
G04 #@! TF.CreationDate,2020-05-16T18:57:51+02:00*
G04 #@! TF.ProjectId,WeatherStationPcb,57656174-6865-4725-9374-6174696f6e50,1*
G04 #@! TF.SameCoordinates,Original*
G04 #@! TF.FileFunction,Soldermask,Bot*
G04 #@! TF.FilePolarity,Negative*
%FSLAX46Y46*%
G04 Gerber Fmt 4.6, Leading zero omitted, Abs format (unit mm)*
G04 Created by KiCad (PCBNEW 5.1.5+dfsg1-2build2) date 2020-05-16 18:57:51*
%MOMM*%
%LPD*%
G04 APERTURE LIST*
%ADD10C,0.100000*%
G04 APERTURE END LIST*
D10*
G36*
X85737000Y-62877000D02*
G01*
X83935000Y-62877000D01*
X83935000Y-61075000D01*
X85737000Y-61075000D01*
X85737000Y-62877000D01*
G37*
G36*
X100215000Y-62877000D02*
G01*
X98413000Y-62877000D01*
X98413000Y-61075000D01*
X100215000Y-61075000D01*
X100215000Y-62877000D01*
G37*
G36*
X82409512Y-61079927D02*
G01*
X82558812Y-61109624D01*
X82722784Y-61177544D01*
X82870354Y-61276147D01*
X82995853Y-61401646D01*
X83094456Y-61549216D01*
X83162376Y-61713188D01*
X83197000Y-61887259D01*
X83197000Y-62064741D01*
X83162376Y-62238812D01*
X83094456Y-62402784D01*
X82995853Y-62550354D01*
X82870354Y-62675853D01*
X82722784Y-62774456D01*
X82558812Y-62842376D01*
X82409512Y-62872073D01*
X82384742Y-62877000D01*
X82207258Y-62877000D01*
X82182488Y-62872073D01*
X82033188Y-62842376D01*
X81869216Y-62774456D01*
X81721646Y-62675853D01*
X81596147Y-62550354D01*
X81497544Y-62402784D01*
X81429624Y-62238812D01*
X81395000Y-62064741D01*
X81395000Y-61887259D01*
X81429624Y-61713188D01*
X81497544Y-61549216D01*
X81596147Y-61401646D01*
X81721646Y-61276147D01*
X81869216Y-61177544D01*
X82033188Y-61109624D01*
X82182488Y-61079927D01*
X82207258Y-61075000D01*
X82384742Y-61075000D01*
X82409512Y-61079927D01*
G37*
G36*
X79869512Y-61079927D02*
G01*
X80018812Y-61109624D01*
X80182784Y-61177544D01*
X80330354Y-61276147D01*
X80455853Y-61401646D01*
X80554456Y-61549216D01*
X80622376Y-61713188D01*
X80657000Y-61887259D01*
X80657000Y-62064741D01*
X80622376Y-62238812D01*
X80554456Y-62402784D01*
X80455853Y-62550354D01*
X80330354Y-62675853D01*
X80182784Y-62774456D01*
X80018812Y-62842376D01*
X79869512Y-62872073D01*
X79844742Y-62877000D01*
X79667258Y-62877000D01*
X79642488Y-62872073D01*
X79493188Y-62842376D01*
X79329216Y-62774456D01*
X79181646Y-62675853D01*
X79056147Y-62550354D01*
X78957544Y-62402784D01*
X78889624Y-62238812D01*
X78855000Y-62064741D01*
X78855000Y-61887259D01*
X78889624Y-61713188D01*
X78957544Y-61549216D01*
X79056147Y-61401646D01*
X79181646Y-61276147D01*
X79329216Y-61177544D01*
X79493188Y-61109624D01*
X79642488Y-61079927D01*
X79667258Y-61075000D01*
X79844742Y-61075000D01*
X79869512Y-61079927D01*
G37*
G36*
X77329512Y-61079927D02*
G01*
X77478812Y-61109624D01*
X77642784Y-61177544D01*
X77790354Y-61276147D01*
X77915853Y-61401646D01*
X78014456Y-61549216D01*
X78082376Y-61713188D01*
X78117000Y-61887259D01*
X78117000Y-62064741D01*
X78082376Y-62238812D01*
X78014456Y-62402784D01*
X77915853Y-62550354D01*
X77790354Y-62675853D01*
X77642784Y-62774456D01*
X77478812Y-62842376D01*
X77329512Y-62872073D01*
X77304742Y-62877000D01*
X77127258Y-62877000D01*
X77102488Y-62872073D01*
X76953188Y-62842376D01*
X76789216Y-62774456D01*
X76641646Y-62675853D01*
X76516147Y-62550354D01*
X76417544Y-62402784D01*
X76349624Y-62238812D01*
X76315000Y-62064741D01*
X76315000Y-61887259D01*
X76349624Y-61713188D01*
X76417544Y-61549216D01*
X76516147Y-61401646D01*
X76641646Y-61276147D01*
X76789216Y-61177544D01*
X76953188Y-61109624D01*
X77102488Y-61079927D01*
X77127258Y-61075000D01*
X77304742Y-61075000D01*
X77329512Y-61079927D01*
G37*
G36*
X74789512Y-61079927D02*
G01*
X74938812Y-61109624D01*
X75102784Y-61177544D01*
X75250354Y-61276147D01*
X75375853Y-61401646D01*
X75474456Y-61549216D01*
X75542376Y-61713188D01*
X75577000Y-61887259D01*
X75577000Y-62064741D01*
X75542376Y-62238812D01*
X75474456Y-62402784D01*
X75375853Y-62550354D01*
X75250354Y-62675853D01*
X75102784Y-62774456D01*
X74938812Y-62842376D01*
X74789512Y-62872073D01*
X74764742Y-62877000D01*
X74587258Y-62877000D01*
X74562488Y-62872073D01*
X74413188Y-62842376D01*
X74249216Y-62774456D01*
X74101646Y-62675853D01*
X73976147Y-62550354D01*
X73877544Y-62402784D01*
X73809624Y-62238812D01*
X73775000Y-62064741D01*
X73775000Y-61887259D01*
X73809624Y-61713188D01*
X73877544Y-61549216D01*
X73976147Y-61401646D01*
X74101646Y-61276147D01*
X74249216Y-61177544D01*
X74413188Y-61109624D01*
X74562488Y-61079927D01*
X74587258Y-61075000D01*
X74764742Y-61075000D01*
X74789512Y-61079927D01*
G37*
G36*
X72249512Y-61079927D02*
G01*
X72398812Y-61109624D01*
X72562784Y-61177544D01*
X72710354Y-61276147D01*
X72835853Y-61401646D01*
X72934456Y-61549216D01*
X73002376Y-61713188D01*
X73037000Y-61887259D01*
X73037000Y-62064741D01*
X73002376Y-62238812D01*
X72934456Y-62402784D01*
X72835853Y-62550354D01*
X72710354Y-62675853D01*
X72562784Y-62774456D01*
X72398812Y-62842376D01*
X72249512Y-62872073D01*
X72224742Y-62877000D01*
X72047258Y-62877000D01*
X72022488Y-62872073D01*
X71873188Y-62842376D01*
X71709216Y-62774456D01*
X71561646Y-62675853D01*
X71436147Y-62550354D01*
X71337544Y-62402784D01*
X71269624Y-62238812D01*
X71235000Y-62064741D01*
X71235000Y-61887259D01*
X71269624Y-61713188D01*
X71337544Y-61549216D01*
X71436147Y-61401646D01*
X71561646Y-61276147D01*
X71709216Y-61177544D01*
X71873188Y-61109624D01*
X72022488Y-61079927D01*
X72047258Y-61075000D01*
X72224742Y-61075000D01*
X72249512Y-61079927D01*
G37*
G36*
X96887512Y-61079927D02*
G01*
X97036812Y-61109624D01*
X97200784Y-61177544D01*
X97348354Y-61276147D01*
X97473853Y-61401646D01*
X97572456Y-61549216D01*
X97640376Y-61713188D01*
X97675000Y-61887259D01*
X97675000Y-62064741D01*
X97640376Y-62238812D01*
X97572456Y-62402784D01*
X97473853Y-62550354D01*
X97348354Y-62675853D01*
X97200784Y-62774456D01*
X97036812Y-62842376D01*
X96887512Y-62872073D01*
X96862742Y-62877000D01*
X96685258Y-62877000D01*
X96660488Y-62872073D01*
X96511188Y-62842376D01*
X96347216Y-62774456D01*
X96199646Y-62675853D01*
X96074147Y-62550354D01*
X95975544Y-62402784D01*
X95907624Y-62238812D01*
X95873000Y-62064741D01*
X95873000Y-61887259D01*
X95907624Y-61713188D01*
X95975544Y-61549216D01*
X96074147Y-61401646D01*
X96199646Y-61276147D01*
X96347216Y-61177544D01*
X96511188Y-61109624D01*
X96660488Y-61079927D01*
X96685258Y-61075000D01*
X96862742Y-61075000D01*
X96887512Y-61079927D01*
G37*
G36*
X94347512Y-61079927D02*
G01*
X94496812Y-61109624D01*
X94660784Y-61177544D01*
X94808354Y-61276147D01*
X94933853Y-61401646D01*
X95032456Y-61549216D01*
X95100376Y-61713188D01*
X95135000Y-61887259D01*
X95135000Y-62064741D01*
X95100376Y-62238812D01*
X95032456Y-62402784D01*
X94933853Y-62550354D01*
X94808354Y-62675853D01*
X94660784Y-62774456D01*
X94496812Y-62842376D01*
X94347512Y-62872073D01*
X94322742Y-62877000D01*
X94145258Y-62877000D01*
X94120488Y-62872073D01*
X93971188Y-62842376D01*
X93807216Y-62774456D01*
X93659646Y-62675853D01*
X93534147Y-62550354D01*
X93435544Y-62402784D01*
X93367624Y-62238812D01*
X93333000Y-62064741D01*
X93333000Y-61887259D01*
X93367624Y-61713188D01*
X93435544Y-61549216D01*
X93534147Y-61401646D01*
X93659646Y-61276147D01*
X93807216Y-61177544D01*
X93971188Y-61109624D01*
X94120488Y-61079927D01*
X94145258Y-61075000D01*
X94322742Y-61075000D01*
X94347512Y-61079927D01*
G37*
G36*
X91807512Y-61079927D02*
G01*
X91956812Y-61109624D01*
X92120784Y-61177544D01*
X92268354Y-61276147D01*
X92393853Y-61401646D01*
X92492456Y-61549216D01*
X92560376Y-61713188D01*
X92595000Y-61887259D01*
X92595000Y-62064741D01*
X92560376Y-62238812D01*
X92492456Y-62402784D01*
X92393853Y-62550354D01*
X92268354Y-62675853D01*
X92120784Y-62774456D01*
X91956812Y-62842376D01*
X91807512Y-62872073D01*
X91782742Y-62877000D01*
X91605258Y-62877000D01*
X91580488Y-62872073D01*
X91431188Y-62842376D01*
X91267216Y-62774456D01*
X91119646Y-62675853D01*
X90994147Y-62550354D01*
X90895544Y-62402784D01*
X90827624Y-62238812D01*
X90793000Y-62064741D01*
X90793000Y-61887259D01*
X90827624Y-61713188D01*
X90895544Y-61549216D01*
X90994147Y-61401646D01*
X91119646Y-61276147D01*
X91267216Y-61177544D01*
X91431188Y-61109624D01*
X91580488Y-61079927D01*
X91605258Y-61075000D01*
X91782742Y-61075000D01*
X91807512Y-61079927D01*
G37*
G36*
X64945585Y-57787802D02*
G01*
X65095410Y-57817604D01*
X65377674Y-57934521D01*
X65631705Y-58104259D01*
X65847741Y-58320295D01*
X66017479Y-58574326D01*
X66134396Y-58856590D01*
X66194000Y-59156240D01*
X66194000Y-59461760D01*
X66134396Y-59761410D01*
X66017479Y-60043674D01*
X65847741Y-60297705D01*
X65631705Y-60513741D01*
X65377674Y-60683479D01*
X65095410Y-60800396D01*
X64945585Y-60830198D01*
X64795761Y-60860000D01*
X64490239Y-60860000D01*
X64340415Y-60830198D01*
X64190590Y-60800396D01*
X63908326Y-60683479D01*
X63654295Y-60513741D01*
X63438259Y-60297705D01*
X63268521Y-60043674D01*
X63151604Y-59761410D01*
X63092000Y-59461760D01*
X63092000Y-59156240D01*
X63151604Y-58856590D01*
X63268521Y-58574326D01*
X63438259Y-58320295D01*
X63654295Y-58104259D01*
X63908326Y-57934521D01*
X64190590Y-57817604D01*
X64340415Y-57787802D01*
X64490239Y-57758000D01*
X64795761Y-57758000D01*
X64945585Y-57787802D01*
G37*
G36*
X66194000Y-55780000D02*
G01*
X63092000Y-55780000D01*
X63092000Y-52678000D01*
X66194000Y-52678000D01*
X66194000Y-55780000D01*
G37*
G36*
X87870512Y-53840927D02*
G01*
X88019812Y-53870624D01*
X88183784Y-53938544D01*
X88331354Y-54037147D01*
X88456853Y-54162646D01*
X88555456Y-54310216D01*
X88623376Y-54474188D01*
X88658000Y-54648259D01*
X88658000Y-54825741D01*
X88623376Y-54999812D01*
X88555456Y-55163784D01*
X88456853Y-55311354D01*
X88331354Y-55436853D01*
X88183784Y-55535456D01*
X88019812Y-55603376D01*
X87870512Y-55633073D01*
X87845742Y-55638000D01*
X87668258Y-55638000D01*
X87643488Y-55633073D01*
X87494188Y-55603376D01*
X87330216Y-55535456D01*
X87182646Y-55436853D01*
X87057147Y-55311354D01*
X86958544Y-55163784D01*
X86890624Y-54999812D01*
X86856000Y-54825741D01*
X86856000Y-54648259D01*
X86890624Y-54474188D01*
X86958544Y-54310216D01*
X87057147Y-54162646D01*
X87182646Y-54037147D01*
X87330216Y-53938544D01*
X87494188Y-53870624D01*
X87643488Y-53840927D01*
X87668258Y-53836000D01*
X87845742Y-53836000D01*
X87870512Y-53840927D01*
G37*
G36*
X85330512Y-53840927D02*
G01*
X85479812Y-53870624D01*
X85643784Y-53938544D01*
X85791354Y-54037147D01*
X85916853Y-54162646D01*
X86015456Y-54310216D01*
X86083376Y-54474188D01*
X86118000Y-54648259D01*
X86118000Y-54825741D01*
X86083376Y-54999812D01*
X86015456Y-55163784D01*
X85916853Y-55311354D01*
X85791354Y-55436853D01*
X85643784Y-55535456D01*
X85479812Y-55603376D01*
X85330512Y-55633073D01*
X85305742Y-55638000D01*
X85128258Y-55638000D01*
X85103488Y-55633073D01*
X84954188Y-55603376D01*
X84790216Y-55535456D01*
X84642646Y-55436853D01*
X84517147Y-55311354D01*
X84418544Y-55163784D01*
X84350624Y-54999812D01*
X84316000Y-54825741D01*
X84316000Y-54648259D01*
X84350624Y-54474188D01*
X84418544Y-54310216D01*
X84517147Y-54162646D01*
X84642646Y-54037147D01*
X84790216Y-53938544D01*
X84954188Y-53870624D01*
X85103488Y-53840927D01*
X85128258Y-53836000D01*
X85305742Y-53836000D01*
X85330512Y-53840927D01*
G37*
G36*
X87870512Y-51300927D02*
G01*
X88019812Y-51330624D01*
X88183784Y-51398544D01*
X88331354Y-51497147D01*
X88456853Y-51622646D01*
X88555456Y-51770216D01*
X88623376Y-51934188D01*
X88658000Y-52108259D01*
X88658000Y-52285741D01*
X88623376Y-52459812D01*
X88555456Y-52623784D01*
X88456853Y-52771354D01*
X88331354Y-52896853D01*
X88183784Y-52995456D01*
X88019812Y-53063376D01*
X87870512Y-53093073D01*
X87845742Y-53098000D01*
X87668258Y-53098000D01*
X87643488Y-53093073D01*
X87494188Y-53063376D01*
X87330216Y-52995456D01*
X87182646Y-52896853D01*
X87057147Y-52771354D01*
X86958544Y-52623784D01*
X86890624Y-52459812D01*
X86856000Y-52285741D01*
X86856000Y-52108259D01*
X86890624Y-51934188D01*
X86958544Y-51770216D01*
X87057147Y-51622646D01*
X87182646Y-51497147D01*
X87330216Y-51398544D01*
X87494188Y-51330624D01*
X87643488Y-51300927D01*
X87668258Y-51296000D01*
X87845742Y-51296000D01*
X87870512Y-51300927D01*
G37*
G36*
X85330512Y-51300927D02*
G01*
X85479812Y-51330624D01*
X85643784Y-51398544D01*
X85791354Y-51497147D01*
X85916853Y-51622646D01*
X86015456Y-51770216D01*
X86083376Y-51934188D01*
X86118000Y-52108259D01*
X86118000Y-52285741D01*
X86083376Y-52459812D01*
X86015456Y-52623784D01*
X85916853Y-52771354D01*
X85791354Y-52896853D01*
X85643784Y-52995456D01*
X85479812Y-53063376D01*
X85330512Y-53093073D01*
X85305742Y-53098000D01*
X85128258Y-53098000D01*
X85103488Y-53093073D01*
X84954188Y-53063376D01*
X84790216Y-52995456D01*
X84642646Y-52896853D01*
X84517147Y-52771354D01*
X84418544Y-52623784D01*
X84350624Y-52459812D01*
X84316000Y-52285741D01*
X84316000Y-52108259D01*
X84350624Y-51934188D01*
X84418544Y-51770216D01*
X84517147Y-51622646D01*
X84642646Y-51497147D01*
X84790216Y-51398544D01*
X84954188Y-51330624D01*
X85103488Y-51300927D01*
X85128258Y-51296000D01*
X85305742Y-51296000D01*
X85330512Y-51300927D01*
G37*
G36*
X87870512Y-48760927D02*
G01*
X88019812Y-48790624D01*
X88183784Y-48858544D01*
X88331354Y-48957147D01*
X88456853Y-49082646D01*
X88555456Y-49230216D01*
X88623376Y-49394188D01*
X88658000Y-49568259D01*
X88658000Y-49745741D01*
X88623376Y-49919812D01*
X88555456Y-50083784D01*
X88456853Y-50231354D01*
X88331354Y-50356853D01*
X88183784Y-50455456D01*
X88019812Y-50523376D01*
X87870512Y-50553073D01*
X87845742Y-50558000D01*
X87668258Y-50558000D01*
X87643488Y-50553073D01*
X87494188Y-50523376D01*
X87330216Y-50455456D01*
X87182646Y-50356853D01*
X87057147Y-50231354D01*
X86958544Y-50083784D01*
X86890624Y-49919812D01*
X86856000Y-49745741D01*
X86856000Y-49568259D01*
X86890624Y-49394188D01*
X86958544Y-49230216D01*
X87057147Y-49082646D01*
X87182646Y-48957147D01*
X87330216Y-48858544D01*
X87494188Y-48790624D01*
X87643488Y-48760927D01*
X87668258Y-48756000D01*
X87845742Y-48756000D01*
X87870512Y-48760927D01*
G37*
G36*
X85330512Y-48760927D02*
G01*
X85479812Y-48790624D01*
X85643784Y-48858544D01*
X85791354Y-48957147D01*
X85916853Y-49082646D01*
X86015456Y-49230216D01*
X86083376Y-49394188D01*
X86118000Y-49568259D01*
X86118000Y-49745741D01*
X86083376Y-49919812D01*
X86015456Y-50083784D01*
X85916853Y-50231354D01*
X85791354Y-50356853D01*
X85643784Y-50455456D01*
X85479812Y-50523376D01*
X85330512Y-50553073D01*
X85305742Y-50558000D01*
X85128258Y-50558000D01*
X85103488Y-50553073D01*
X84954188Y-50523376D01*
X84790216Y-50455456D01*
X84642646Y-50356853D01*
X84517147Y-50231354D01*
X84418544Y-50083784D01*
X84350624Y-49919812D01*
X84316000Y-49745741D01*
X84316000Y-49568259D01*
X84350624Y-49394188D01*
X84418544Y-49230216D01*
X84517147Y-49082646D01*
X84642646Y-48957147D01*
X84790216Y-48858544D01*
X84954188Y-48790624D01*
X85103488Y-48760927D01*
X85128258Y-48756000D01*
X85305742Y-48756000D01*
X85330512Y-48760927D01*
G37*
G36*
X86118000Y-48018000D02*
G01*
X84316000Y-48018000D01*
X84316000Y-46216000D01*
X86118000Y-46216000D01*
X86118000Y-48018000D01*
G37*
G36*
X87870512Y-46220927D02*
G01*
X88019812Y-46250624D01*
X88183784Y-46318544D01*
X88331354Y-46417147D01*
X88456853Y-46542646D01*
X88555456Y-46690216D01*
X88623376Y-46854188D01*
X88658000Y-47028259D01*
X88658000Y-47205741D01*
X88623376Y-47379812D01*
X88555456Y-47543784D01*
X88456853Y-47691354D01*
X88331354Y-47816853D01*
X88183784Y-47915456D01*
X88019812Y-47983376D01*
X87870512Y-48013073D01*
X87845742Y-48018000D01*
X87668258Y-48018000D01*
X87643488Y-48013073D01*
X87494188Y-47983376D01*
X87330216Y-47915456D01*
X87182646Y-47816853D01*
X87057147Y-47691354D01*
X86958544Y-47543784D01*
X86890624Y-47379812D01*
X86856000Y-47205741D01*
X86856000Y-47028259D01*
X86890624Y-46854188D01*
X86958544Y-46690216D01*
X87057147Y-46542646D01*
X87182646Y-46417147D01*
X87330216Y-46318544D01*
X87494188Y-46250624D01*
X87643488Y-46220927D01*
X87668258Y-46216000D01*
X87845742Y-46216000D01*
X87870512Y-46220927D01*
G37*
M02*
