G04 #@! TF.GenerationSoftware,KiCad,Pcbnew,5.1.5+dfsg1-2build2*
G04 #@! TF.CreationDate,2020-05-16T18:57:51+02:00*
G04 #@! TF.ProjectId,WeatherStationPcb,57656174-6865-4725-9374-6174696f6e50,1*
G04 #@! TF.SameCoordinates,Original*
G04 #@! TF.FileFunction,Copper,L2,Bot*
G04 #@! TF.FilePolarity,Positive*
%FSLAX46Y46*%
G04 Gerber Fmt 4.6, Leading zero omitted, Abs format (unit mm)*
G04 Created by KiCad (PCBNEW 5.1.5+dfsg1-2build2) date 2020-05-16 18:57:51*
%MOMM*%
%LPD*%
G04 APERTURE LIST*
%ADD10R,3.000000X3.000000*%
%ADD11C,3.000000*%
%ADD12R,1.700000X1.700000*%
%ADD13O,1.700000X1.700000*%
%ADD14C,0.800000*%
%ADD15C,0.250000*%
%ADD16C,0.254000*%
G04 APERTURE END LIST*
D10*
X64643000Y-54229000D03*
D11*
X64643000Y-59309000D03*
D12*
X84836000Y-61976000D03*
D13*
X82296000Y-61976000D03*
X79756000Y-61976000D03*
X77216000Y-61976000D03*
X74676000Y-61976000D03*
X72136000Y-61976000D03*
D12*
X99314000Y-61976000D03*
D13*
X96774000Y-61976000D03*
X94234000Y-61976000D03*
X91694000Y-61976000D03*
D12*
X85217000Y-47117000D03*
D13*
X87757000Y-47117000D03*
X85217000Y-49657000D03*
X87757000Y-49657000D03*
X85217000Y-52197000D03*
X87757000Y-52197000D03*
X85217000Y-54737000D03*
X87757000Y-54737000D03*
D14*
X78232000Y-49530000D03*
X69088000Y-53340000D03*
X69469000Y-59309000D03*
X75452000Y-55104000D03*
D15*
X73674000Y-55104000D02*
X69469000Y-59309000D01*
X75452000Y-55104000D02*
X73674000Y-55104000D01*
X85217000Y-49657000D02*
X82804000Y-52070000D01*
X82804000Y-56388000D02*
X77216000Y-61976000D01*
X82804000Y-52070000D02*
X82804000Y-56388000D01*
X82804000Y-56388000D02*
X83058000Y-56388000D01*
X88646000Y-61976000D02*
X91694000Y-61976000D01*
X83058000Y-56388000D02*
X88646000Y-61976000D01*
D16*
G36*
X101956001Y-46763607D02*
G01*
X101956000Y-62964394D01*
X100556394Y-64364000D01*
X62003606Y-64364000D01*
X60604000Y-62964394D01*
X60604000Y-61829740D01*
X70651000Y-61829740D01*
X70651000Y-62122260D01*
X70708068Y-62409158D01*
X70820010Y-62679411D01*
X70982525Y-62922632D01*
X71189368Y-63129475D01*
X71432589Y-63291990D01*
X71702842Y-63403932D01*
X71989740Y-63461000D01*
X72282260Y-63461000D01*
X72569158Y-63403932D01*
X72839411Y-63291990D01*
X73082632Y-63129475D01*
X73289475Y-62922632D01*
X73406000Y-62748240D01*
X73522525Y-62922632D01*
X73729368Y-63129475D01*
X73972589Y-63291990D01*
X74242842Y-63403932D01*
X74529740Y-63461000D01*
X74822260Y-63461000D01*
X75109158Y-63403932D01*
X75379411Y-63291990D01*
X75622632Y-63129475D01*
X75829475Y-62922632D01*
X75946000Y-62748240D01*
X76062525Y-62922632D01*
X76269368Y-63129475D01*
X76512589Y-63291990D01*
X76782842Y-63403932D01*
X77069740Y-63461000D01*
X77362260Y-63461000D01*
X77649158Y-63403932D01*
X77919411Y-63291990D01*
X78162632Y-63129475D01*
X78369475Y-62922632D01*
X78486000Y-62748240D01*
X78602525Y-62922632D01*
X78809368Y-63129475D01*
X79052589Y-63291990D01*
X79322842Y-63403932D01*
X79609740Y-63461000D01*
X79902260Y-63461000D01*
X80189158Y-63403932D01*
X80459411Y-63291990D01*
X80702632Y-63129475D01*
X80909475Y-62922632D01*
X81031195Y-62740466D01*
X81100822Y-62857355D01*
X81295731Y-63073588D01*
X81529080Y-63247641D01*
X81791901Y-63372825D01*
X81939110Y-63417476D01*
X82169000Y-63296155D01*
X82169000Y-62103000D01*
X82149000Y-62103000D01*
X82149000Y-61849000D01*
X82169000Y-61849000D01*
X82169000Y-60655845D01*
X82423000Y-60655845D01*
X82423000Y-61849000D01*
X82443000Y-61849000D01*
X82443000Y-62103000D01*
X82423000Y-62103000D01*
X82423000Y-63296155D01*
X82652890Y-63417476D01*
X82800099Y-63372825D01*
X83062920Y-63247641D01*
X83296269Y-63073588D01*
X83372034Y-62989534D01*
X83396498Y-63070180D01*
X83455463Y-63180494D01*
X83534815Y-63277185D01*
X83631506Y-63356537D01*
X83741820Y-63415502D01*
X83861518Y-63451812D01*
X83986000Y-63464072D01*
X85686000Y-63464072D01*
X85810482Y-63451812D01*
X85930180Y-63415502D01*
X86040494Y-63356537D01*
X86137185Y-63277185D01*
X86216537Y-63180494D01*
X86275502Y-63070180D01*
X86311812Y-62950482D01*
X86324072Y-62826000D01*
X86324072Y-61126000D01*
X86311812Y-61001518D01*
X86275502Y-60881820D01*
X86216537Y-60771506D01*
X86137185Y-60674815D01*
X86040494Y-60595463D01*
X85930180Y-60536498D01*
X85810482Y-60500188D01*
X85686000Y-60487928D01*
X83986000Y-60487928D01*
X83861518Y-60500188D01*
X83741820Y-60536498D01*
X83631506Y-60595463D01*
X83534815Y-60674815D01*
X83455463Y-60771506D01*
X83396498Y-60881820D01*
X83372034Y-60962466D01*
X83296269Y-60878412D01*
X83062920Y-60704359D01*
X82800099Y-60579175D01*
X82652890Y-60534524D01*
X82423000Y-60655845D01*
X82169000Y-60655845D01*
X81939110Y-60534524D01*
X81791901Y-60579175D01*
X81529080Y-60704359D01*
X81295731Y-60878412D01*
X81100822Y-61094645D01*
X81031195Y-61211534D01*
X80909475Y-61029368D01*
X80702632Y-60822525D01*
X80459411Y-60660010D01*
X80189158Y-60548068D01*
X79902260Y-60491000D01*
X79775802Y-60491000D01*
X82931001Y-57335802D01*
X88082205Y-62487008D01*
X88105999Y-62516001D01*
X88134992Y-62539795D01*
X88134996Y-62539799D01*
X88205685Y-62597811D01*
X88221724Y-62610974D01*
X88353753Y-62681546D01*
X88497014Y-62725003D01*
X88608667Y-62736000D01*
X88608676Y-62736000D01*
X88645999Y-62739676D01*
X88683322Y-62736000D01*
X90415822Y-62736000D01*
X90540525Y-62922632D01*
X90747368Y-63129475D01*
X90990589Y-63291990D01*
X91260842Y-63403932D01*
X91547740Y-63461000D01*
X91840260Y-63461000D01*
X92127158Y-63403932D01*
X92397411Y-63291990D01*
X92640632Y-63129475D01*
X92847475Y-62922632D01*
X92964000Y-62748240D01*
X93080525Y-62922632D01*
X93287368Y-63129475D01*
X93530589Y-63291990D01*
X93800842Y-63403932D01*
X94087740Y-63461000D01*
X94380260Y-63461000D01*
X94667158Y-63403932D01*
X94937411Y-63291990D01*
X95180632Y-63129475D01*
X95387475Y-62922632D01*
X95509195Y-62740466D01*
X95578822Y-62857355D01*
X95773731Y-63073588D01*
X96007080Y-63247641D01*
X96269901Y-63372825D01*
X96417110Y-63417476D01*
X96647000Y-63296155D01*
X96647000Y-62103000D01*
X96627000Y-62103000D01*
X96627000Y-61849000D01*
X96647000Y-61849000D01*
X96647000Y-60655845D01*
X96901000Y-60655845D01*
X96901000Y-61849000D01*
X96921000Y-61849000D01*
X96921000Y-62103000D01*
X96901000Y-62103000D01*
X96901000Y-63296155D01*
X97130890Y-63417476D01*
X97278099Y-63372825D01*
X97540920Y-63247641D01*
X97774269Y-63073588D01*
X97850034Y-62989534D01*
X97874498Y-63070180D01*
X97933463Y-63180494D01*
X98012815Y-63277185D01*
X98109506Y-63356537D01*
X98219820Y-63415502D01*
X98339518Y-63451812D01*
X98464000Y-63464072D01*
X100164000Y-63464072D01*
X100288482Y-63451812D01*
X100408180Y-63415502D01*
X100518494Y-63356537D01*
X100615185Y-63277185D01*
X100694537Y-63180494D01*
X100753502Y-63070180D01*
X100789812Y-62950482D01*
X100802072Y-62826000D01*
X100802072Y-61126000D01*
X100789812Y-61001518D01*
X100753502Y-60881820D01*
X100694537Y-60771506D01*
X100615185Y-60674815D01*
X100518494Y-60595463D01*
X100408180Y-60536498D01*
X100288482Y-60500188D01*
X100164000Y-60487928D01*
X98464000Y-60487928D01*
X98339518Y-60500188D01*
X98219820Y-60536498D01*
X98109506Y-60595463D01*
X98012815Y-60674815D01*
X97933463Y-60771506D01*
X97874498Y-60881820D01*
X97850034Y-60962466D01*
X97774269Y-60878412D01*
X97540920Y-60704359D01*
X97278099Y-60579175D01*
X97130890Y-60534524D01*
X96901000Y-60655845D01*
X96647000Y-60655845D01*
X96417110Y-60534524D01*
X96269901Y-60579175D01*
X96007080Y-60704359D01*
X95773731Y-60878412D01*
X95578822Y-61094645D01*
X95509195Y-61211534D01*
X95387475Y-61029368D01*
X95180632Y-60822525D01*
X94937411Y-60660010D01*
X94667158Y-60548068D01*
X94380260Y-60491000D01*
X94087740Y-60491000D01*
X93800842Y-60548068D01*
X93530589Y-60660010D01*
X93287368Y-60822525D01*
X93080525Y-61029368D01*
X92964000Y-61203760D01*
X92847475Y-61029368D01*
X92640632Y-60822525D01*
X92397411Y-60660010D01*
X92127158Y-60548068D01*
X91840260Y-60491000D01*
X91547740Y-60491000D01*
X91260842Y-60548068D01*
X90990589Y-60660010D01*
X90747368Y-60822525D01*
X90540525Y-61029368D01*
X90415822Y-61216000D01*
X88960803Y-61216000D01*
X83621804Y-55877003D01*
X83598001Y-55847999D01*
X83564000Y-55820095D01*
X83564000Y-55093890D01*
X83775524Y-55093890D01*
X83820175Y-55241099D01*
X83945359Y-55503920D01*
X84119412Y-55737269D01*
X84335645Y-55932178D01*
X84585748Y-56081157D01*
X84860109Y-56178481D01*
X85090000Y-56057814D01*
X85090000Y-54864000D01*
X83896845Y-54864000D01*
X83775524Y-55093890D01*
X83564000Y-55093890D01*
X83564000Y-52384801D01*
X83732000Y-52216801D01*
X83732000Y-52343260D01*
X83789068Y-52630158D01*
X83901010Y-52900411D01*
X84063525Y-53143632D01*
X84270368Y-53350475D01*
X84452534Y-53472195D01*
X84335645Y-53541822D01*
X84119412Y-53736731D01*
X83945359Y-53970080D01*
X83820175Y-54232901D01*
X83775524Y-54380110D01*
X83896845Y-54610000D01*
X85090000Y-54610000D01*
X85090000Y-54590000D01*
X85344000Y-54590000D01*
X85344000Y-54610000D01*
X85364000Y-54610000D01*
X85364000Y-54864000D01*
X85344000Y-54864000D01*
X85344000Y-56057814D01*
X85573891Y-56178481D01*
X85848252Y-56081157D01*
X86098355Y-55932178D01*
X86314588Y-55737269D01*
X86485900Y-55507594D01*
X86603525Y-55683632D01*
X86810368Y-55890475D01*
X87053589Y-56052990D01*
X87323842Y-56164932D01*
X87610740Y-56222000D01*
X87903260Y-56222000D01*
X88190158Y-56164932D01*
X88460411Y-56052990D01*
X88703632Y-55890475D01*
X88910475Y-55683632D01*
X89072990Y-55440411D01*
X89184932Y-55170158D01*
X89242000Y-54883260D01*
X89242000Y-54590740D01*
X89184932Y-54303842D01*
X89072990Y-54033589D01*
X88910475Y-53790368D01*
X88703632Y-53583525D01*
X88529240Y-53467000D01*
X88703632Y-53350475D01*
X88910475Y-53143632D01*
X89072990Y-52900411D01*
X89184932Y-52630158D01*
X89242000Y-52343260D01*
X89242000Y-52050740D01*
X89184932Y-51763842D01*
X89072990Y-51493589D01*
X88910475Y-51250368D01*
X88703632Y-51043525D01*
X88529240Y-50927000D01*
X88703632Y-50810475D01*
X88910475Y-50603632D01*
X89072990Y-50360411D01*
X89184932Y-50090158D01*
X89242000Y-49803260D01*
X89242000Y-49510740D01*
X89184932Y-49223842D01*
X89072990Y-48953589D01*
X88910475Y-48710368D01*
X88703632Y-48503525D01*
X88529240Y-48387000D01*
X88703632Y-48270475D01*
X88910475Y-48063632D01*
X89072990Y-47820411D01*
X89184932Y-47550158D01*
X89242000Y-47263260D01*
X89242000Y-46970740D01*
X89184932Y-46683842D01*
X89072990Y-46413589D01*
X88910475Y-46170368D01*
X88703632Y-45963525D01*
X88460411Y-45801010D01*
X88190158Y-45689068D01*
X87903260Y-45632000D01*
X87610740Y-45632000D01*
X87323842Y-45689068D01*
X87053589Y-45801010D01*
X86810368Y-45963525D01*
X86678513Y-46095380D01*
X86656502Y-46022820D01*
X86597537Y-45912506D01*
X86518185Y-45815815D01*
X86421494Y-45736463D01*
X86311180Y-45677498D01*
X86191482Y-45641188D01*
X86067000Y-45628928D01*
X84367000Y-45628928D01*
X84242518Y-45641188D01*
X84122820Y-45677498D01*
X84012506Y-45736463D01*
X83915815Y-45815815D01*
X83836463Y-45912506D01*
X83777498Y-46022820D01*
X83741188Y-46142518D01*
X83728928Y-46267000D01*
X83728928Y-47967000D01*
X83741188Y-48091482D01*
X83777498Y-48211180D01*
X83836463Y-48321494D01*
X83915815Y-48418185D01*
X84012506Y-48497537D01*
X84122820Y-48556502D01*
X84195380Y-48578513D01*
X84063525Y-48710368D01*
X83901010Y-48953589D01*
X83789068Y-49223842D01*
X83732000Y-49510740D01*
X83732000Y-49803260D01*
X83775790Y-50023408D01*
X82293003Y-51506196D01*
X82263999Y-51529999D01*
X82208871Y-51597174D01*
X82169026Y-51645724D01*
X82105890Y-51763842D01*
X82098454Y-51777754D01*
X82054997Y-51921015D01*
X82044000Y-52032668D01*
X82044000Y-52032678D01*
X82040324Y-52070000D01*
X82044000Y-52107323D01*
X82044001Y-56073196D01*
X77582408Y-60534791D01*
X77362260Y-60491000D01*
X77069740Y-60491000D01*
X76782842Y-60548068D01*
X76512589Y-60660010D01*
X76269368Y-60822525D01*
X76062525Y-61029368D01*
X75946000Y-61203760D01*
X75829475Y-61029368D01*
X75622632Y-60822525D01*
X75379411Y-60660010D01*
X75109158Y-60548068D01*
X74822260Y-60491000D01*
X74529740Y-60491000D01*
X74242842Y-60548068D01*
X73972589Y-60660010D01*
X73729368Y-60822525D01*
X73522525Y-61029368D01*
X73406000Y-61203760D01*
X73289475Y-61029368D01*
X73082632Y-60822525D01*
X72839411Y-60660010D01*
X72569158Y-60548068D01*
X72282260Y-60491000D01*
X71989740Y-60491000D01*
X71702842Y-60548068D01*
X71432589Y-60660010D01*
X71189368Y-60822525D01*
X70982525Y-61029368D01*
X70820010Y-61272589D01*
X70708068Y-61542842D01*
X70651000Y-61829740D01*
X60604000Y-61829740D01*
X60604000Y-59098721D01*
X62508000Y-59098721D01*
X62508000Y-59519279D01*
X62590047Y-59931756D01*
X62750988Y-60320302D01*
X62984637Y-60669983D01*
X63282017Y-60967363D01*
X63631698Y-61201012D01*
X64020244Y-61361953D01*
X64432721Y-61444000D01*
X64853279Y-61444000D01*
X65265756Y-61361953D01*
X65654302Y-61201012D01*
X66003983Y-60967363D01*
X66301363Y-60669983D01*
X66535012Y-60320302D01*
X66695953Y-59931756D01*
X66778000Y-59519279D01*
X66778000Y-59207061D01*
X68434000Y-59207061D01*
X68434000Y-59410939D01*
X68473774Y-59610898D01*
X68551795Y-59799256D01*
X68665063Y-59968774D01*
X68809226Y-60112937D01*
X68978744Y-60226205D01*
X69167102Y-60304226D01*
X69367061Y-60344000D01*
X69570939Y-60344000D01*
X69770898Y-60304226D01*
X69959256Y-60226205D01*
X70128774Y-60112937D01*
X70272937Y-59968774D01*
X70386205Y-59799256D01*
X70464226Y-59610898D01*
X70504000Y-59410939D01*
X70504000Y-59348801D01*
X73988802Y-55864000D01*
X74748289Y-55864000D01*
X74792226Y-55907937D01*
X74961744Y-56021205D01*
X75150102Y-56099226D01*
X75350061Y-56139000D01*
X75553939Y-56139000D01*
X75753898Y-56099226D01*
X75942256Y-56021205D01*
X76111774Y-55907937D01*
X76255937Y-55763774D01*
X76369205Y-55594256D01*
X76447226Y-55405898D01*
X76487000Y-55205939D01*
X76487000Y-55002061D01*
X76447226Y-54802102D01*
X76369205Y-54613744D01*
X76255937Y-54444226D01*
X76111774Y-54300063D01*
X75942256Y-54186795D01*
X75753898Y-54108774D01*
X75553939Y-54069000D01*
X75350061Y-54069000D01*
X75150102Y-54108774D01*
X74961744Y-54186795D01*
X74792226Y-54300063D01*
X74748289Y-54344000D01*
X73711322Y-54344000D01*
X73673999Y-54340324D01*
X73636676Y-54344000D01*
X73636667Y-54344000D01*
X73525014Y-54354997D01*
X73381753Y-54398454D01*
X73249723Y-54469026D01*
X73194009Y-54514750D01*
X73133999Y-54563999D01*
X73110201Y-54592997D01*
X69429199Y-58274000D01*
X69367061Y-58274000D01*
X69167102Y-58313774D01*
X68978744Y-58391795D01*
X68809226Y-58505063D01*
X68665063Y-58649226D01*
X68551795Y-58818744D01*
X68473774Y-59007102D01*
X68434000Y-59207061D01*
X66778000Y-59207061D01*
X66778000Y-59098721D01*
X66695953Y-58686244D01*
X66535012Y-58297698D01*
X66301363Y-57948017D01*
X66003983Y-57650637D01*
X65654302Y-57416988D01*
X65265756Y-57256047D01*
X64853279Y-57174000D01*
X64432721Y-57174000D01*
X64020244Y-57256047D01*
X63631698Y-57416988D01*
X63282017Y-57650637D01*
X62984637Y-57948017D01*
X62750988Y-58297698D01*
X62590047Y-58686244D01*
X62508000Y-59098721D01*
X60604000Y-59098721D01*
X60604000Y-55729000D01*
X62504928Y-55729000D01*
X62517188Y-55853482D01*
X62553498Y-55973180D01*
X62612463Y-56083494D01*
X62691815Y-56180185D01*
X62788506Y-56259537D01*
X62898820Y-56318502D01*
X63018518Y-56354812D01*
X63143000Y-56367072D01*
X64357250Y-56364000D01*
X64516000Y-56205250D01*
X64516000Y-54356000D01*
X64770000Y-54356000D01*
X64770000Y-56205250D01*
X64928750Y-56364000D01*
X66143000Y-56367072D01*
X66267482Y-56354812D01*
X66387180Y-56318502D01*
X66497494Y-56259537D01*
X66594185Y-56180185D01*
X66673537Y-56083494D01*
X66732502Y-55973180D01*
X66768812Y-55853482D01*
X66781072Y-55729000D01*
X66778000Y-54514750D01*
X66619250Y-54356000D01*
X64770000Y-54356000D01*
X64516000Y-54356000D01*
X62666750Y-54356000D01*
X62508000Y-54514750D01*
X62504928Y-55729000D01*
X60604000Y-55729000D01*
X60604000Y-52729000D01*
X62504928Y-52729000D01*
X62508000Y-53943250D01*
X62666750Y-54102000D01*
X64516000Y-54102000D01*
X64516000Y-52252750D01*
X64770000Y-52252750D01*
X64770000Y-54102000D01*
X66619250Y-54102000D01*
X66778000Y-53943250D01*
X66781072Y-52729000D01*
X66768812Y-52604518D01*
X66732502Y-52484820D01*
X66673537Y-52374506D01*
X66594185Y-52277815D01*
X66497494Y-52198463D01*
X66387180Y-52139498D01*
X66267482Y-52103188D01*
X66143000Y-52090928D01*
X64928750Y-52094000D01*
X64770000Y-52252750D01*
X64516000Y-52252750D01*
X64357250Y-52094000D01*
X63143000Y-52090928D01*
X63018518Y-52103188D01*
X62898820Y-52139498D01*
X62788506Y-52198463D01*
X62691815Y-52277815D01*
X62612463Y-52374506D01*
X62553498Y-52484820D01*
X62517188Y-52604518D01*
X62504928Y-52729000D01*
X60604000Y-52729000D01*
X60604000Y-46763606D01*
X62003606Y-45364000D01*
X100556394Y-45364000D01*
X101956001Y-46763607D01*
G37*
X101956001Y-46763607D02*
X101956000Y-62964394D01*
X100556394Y-64364000D01*
X62003606Y-64364000D01*
X60604000Y-62964394D01*
X60604000Y-61829740D01*
X70651000Y-61829740D01*
X70651000Y-62122260D01*
X70708068Y-62409158D01*
X70820010Y-62679411D01*
X70982525Y-62922632D01*
X71189368Y-63129475D01*
X71432589Y-63291990D01*
X71702842Y-63403932D01*
X71989740Y-63461000D01*
X72282260Y-63461000D01*
X72569158Y-63403932D01*
X72839411Y-63291990D01*
X73082632Y-63129475D01*
X73289475Y-62922632D01*
X73406000Y-62748240D01*
X73522525Y-62922632D01*
X73729368Y-63129475D01*
X73972589Y-63291990D01*
X74242842Y-63403932D01*
X74529740Y-63461000D01*
X74822260Y-63461000D01*
X75109158Y-63403932D01*
X75379411Y-63291990D01*
X75622632Y-63129475D01*
X75829475Y-62922632D01*
X75946000Y-62748240D01*
X76062525Y-62922632D01*
X76269368Y-63129475D01*
X76512589Y-63291990D01*
X76782842Y-63403932D01*
X77069740Y-63461000D01*
X77362260Y-63461000D01*
X77649158Y-63403932D01*
X77919411Y-63291990D01*
X78162632Y-63129475D01*
X78369475Y-62922632D01*
X78486000Y-62748240D01*
X78602525Y-62922632D01*
X78809368Y-63129475D01*
X79052589Y-63291990D01*
X79322842Y-63403932D01*
X79609740Y-63461000D01*
X79902260Y-63461000D01*
X80189158Y-63403932D01*
X80459411Y-63291990D01*
X80702632Y-63129475D01*
X80909475Y-62922632D01*
X81031195Y-62740466D01*
X81100822Y-62857355D01*
X81295731Y-63073588D01*
X81529080Y-63247641D01*
X81791901Y-63372825D01*
X81939110Y-63417476D01*
X82169000Y-63296155D01*
X82169000Y-62103000D01*
X82149000Y-62103000D01*
X82149000Y-61849000D01*
X82169000Y-61849000D01*
X82169000Y-60655845D01*
X82423000Y-60655845D01*
X82423000Y-61849000D01*
X82443000Y-61849000D01*
X82443000Y-62103000D01*
X82423000Y-62103000D01*
X82423000Y-63296155D01*
X82652890Y-63417476D01*
X82800099Y-63372825D01*
X83062920Y-63247641D01*
X83296269Y-63073588D01*
X83372034Y-62989534D01*
X83396498Y-63070180D01*
X83455463Y-63180494D01*
X83534815Y-63277185D01*
X83631506Y-63356537D01*
X83741820Y-63415502D01*
X83861518Y-63451812D01*
X83986000Y-63464072D01*
X85686000Y-63464072D01*
X85810482Y-63451812D01*
X85930180Y-63415502D01*
X86040494Y-63356537D01*
X86137185Y-63277185D01*
X86216537Y-63180494D01*
X86275502Y-63070180D01*
X86311812Y-62950482D01*
X86324072Y-62826000D01*
X86324072Y-61126000D01*
X86311812Y-61001518D01*
X86275502Y-60881820D01*
X86216537Y-60771506D01*
X86137185Y-60674815D01*
X86040494Y-60595463D01*
X85930180Y-60536498D01*
X85810482Y-60500188D01*
X85686000Y-60487928D01*
X83986000Y-60487928D01*
X83861518Y-60500188D01*
X83741820Y-60536498D01*
X83631506Y-60595463D01*
X83534815Y-60674815D01*
X83455463Y-60771506D01*
X83396498Y-60881820D01*
X83372034Y-60962466D01*
X83296269Y-60878412D01*
X83062920Y-60704359D01*
X82800099Y-60579175D01*
X82652890Y-60534524D01*
X82423000Y-60655845D01*
X82169000Y-60655845D01*
X81939110Y-60534524D01*
X81791901Y-60579175D01*
X81529080Y-60704359D01*
X81295731Y-60878412D01*
X81100822Y-61094645D01*
X81031195Y-61211534D01*
X80909475Y-61029368D01*
X80702632Y-60822525D01*
X80459411Y-60660010D01*
X80189158Y-60548068D01*
X79902260Y-60491000D01*
X79775802Y-60491000D01*
X82931001Y-57335802D01*
X88082205Y-62487008D01*
X88105999Y-62516001D01*
X88134992Y-62539795D01*
X88134996Y-62539799D01*
X88205685Y-62597811D01*
X88221724Y-62610974D01*
X88353753Y-62681546D01*
X88497014Y-62725003D01*
X88608667Y-62736000D01*
X88608676Y-62736000D01*
X88645999Y-62739676D01*
X88683322Y-62736000D01*
X90415822Y-62736000D01*
X90540525Y-62922632D01*
X90747368Y-63129475D01*
X90990589Y-63291990D01*
X91260842Y-63403932D01*
X91547740Y-63461000D01*
X91840260Y-63461000D01*
X92127158Y-63403932D01*
X92397411Y-63291990D01*
X92640632Y-63129475D01*
X92847475Y-62922632D01*
X92964000Y-62748240D01*
X93080525Y-62922632D01*
X93287368Y-63129475D01*
X93530589Y-63291990D01*
X93800842Y-63403932D01*
X94087740Y-63461000D01*
X94380260Y-63461000D01*
X94667158Y-63403932D01*
X94937411Y-63291990D01*
X95180632Y-63129475D01*
X95387475Y-62922632D01*
X95509195Y-62740466D01*
X95578822Y-62857355D01*
X95773731Y-63073588D01*
X96007080Y-63247641D01*
X96269901Y-63372825D01*
X96417110Y-63417476D01*
X96647000Y-63296155D01*
X96647000Y-62103000D01*
X96627000Y-62103000D01*
X96627000Y-61849000D01*
X96647000Y-61849000D01*
X96647000Y-60655845D01*
X96901000Y-60655845D01*
X96901000Y-61849000D01*
X96921000Y-61849000D01*
X96921000Y-62103000D01*
X96901000Y-62103000D01*
X96901000Y-63296155D01*
X97130890Y-63417476D01*
X97278099Y-63372825D01*
X97540920Y-63247641D01*
X97774269Y-63073588D01*
X97850034Y-62989534D01*
X97874498Y-63070180D01*
X97933463Y-63180494D01*
X98012815Y-63277185D01*
X98109506Y-63356537D01*
X98219820Y-63415502D01*
X98339518Y-63451812D01*
X98464000Y-63464072D01*
X100164000Y-63464072D01*
X100288482Y-63451812D01*
X100408180Y-63415502D01*
X100518494Y-63356537D01*
X100615185Y-63277185D01*
X100694537Y-63180494D01*
X100753502Y-63070180D01*
X100789812Y-62950482D01*
X100802072Y-62826000D01*
X100802072Y-61126000D01*
X100789812Y-61001518D01*
X100753502Y-60881820D01*
X100694537Y-60771506D01*
X100615185Y-60674815D01*
X100518494Y-60595463D01*
X100408180Y-60536498D01*
X100288482Y-60500188D01*
X100164000Y-60487928D01*
X98464000Y-60487928D01*
X98339518Y-60500188D01*
X98219820Y-60536498D01*
X98109506Y-60595463D01*
X98012815Y-60674815D01*
X97933463Y-60771506D01*
X97874498Y-60881820D01*
X97850034Y-60962466D01*
X97774269Y-60878412D01*
X97540920Y-60704359D01*
X97278099Y-60579175D01*
X97130890Y-60534524D01*
X96901000Y-60655845D01*
X96647000Y-60655845D01*
X96417110Y-60534524D01*
X96269901Y-60579175D01*
X96007080Y-60704359D01*
X95773731Y-60878412D01*
X95578822Y-61094645D01*
X95509195Y-61211534D01*
X95387475Y-61029368D01*
X95180632Y-60822525D01*
X94937411Y-60660010D01*
X94667158Y-60548068D01*
X94380260Y-60491000D01*
X94087740Y-60491000D01*
X93800842Y-60548068D01*
X93530589Y-60660010D01*
X93287368Y-60822525D01*
X93080525Y-61029368D01*
X92964000Y-61203760D01*
X92847475Y-61029368D01*
X92640632Y-60822525D01*
X92397411Y-60660010D01*
X92127158Y-60548068D01*
X91840260Y-60491000D01*
X91547740Y-60491000D01*
X91260842Y-60548068D01*
X90990589Y-60660010D01*
X90747368Y-60822525D01*
X90540525Y-61029368D01*
X90415822Y-61216000D01*
X88960803Y-61216000D01*
X83621804Y-55877003D01*
X83598001Y-55847999D01*
X83564000Y-55820095D01*
X83564000Y-55093890D01*
X83775524Y-55093890D01*
X83820175Y-55241099D01*
X83945359Y-55503920D01*
X84119412Y-55737269D01*
X84335645Y-55932178D01*
X84585748Y-56081157D01*
X84860109Y-56178481D01*
X85090000Y-56057814D01*
X85090000Y-54864000D01*
X83896845Y-54864000D01*
X83775524Y-55093890D01*
X83564000Y-55093890D01*
X83564000Y-52384801D01*
X83732000Y-52216801D01*
X83732000Y-52343260D01*
X83789068Y-52630158D01*
X83901010Y-52900411D01*
X84063525Y-53143632D01*
X84270368Y-53350475D01*
X84452534Y-53472195D01*
X84335645Y-53541822D01*
X84119412Y-53736731D01*
X83945359Y-53970080D01*
X83820175Y-54232901D01*
X83775524Y-54380110D01*
X83896845Y-54610000D01*
X85090000Y-54610000D01*
X85090000Y-54590000D01*
X85344000Y-54590000D01*
X85344000Y-54610000D01*
X85364000Y-54610000D01*
X85364000Y-54864000D01*
X85344000Y-54864000D01*
X85344000Y-56057814D01*
X85573891Y-56178481D01*
X85848252Y-56081157D01*
X86098355Y-55932178D01*
X86314588Y-55737269D01*
X86485900Y-55507594D01*
X86603525Y-55683632D01*
X86810368Y-55890475D01*
X87053589Y-56052990D01*
X87323842Y-56164932D01*
X87610740Y-56222000D01*
X87903260Y-56222000D01*
X88190158Y-56164932D01*
X88460411Y-56052990D01*
X88703632Y-55890475D01*
X88910475Y-55683632D01*
X89072990Y-55440411D01*
X89184932Y-55170158D01*
X89242000Y-54883260D01*
X89242000Y-54590740D01*
X89184932Y-54303842D01*
X89072990Y-54033589D01*
X88910475Y-53790368D01*
X88703632Y-53583525D01*
X88529240Y-53467000D01*
X88703632Y-53350475D01*
X88910475Y-53143632D01*
X89072990Y-52900411D01*
X89184932Y-52630158D01*
X89242000Y-52343260D01*
X89242000Y-52050740D01*
X89184932Y-51763842D01*
X89072990Y-51493589D01*
X88910475Y-51250368D01*
X88703632Y-51043525D01*
X88529240Y-50927000D01*
X88703632Y-50810475D01*
X88910475Y-50603632D01*
X89072990Y-50360411D01*
X89184932Y-50090158D01*
X89242000Y-49803260D01*
X89242000Y-49510740D01*
X89184932Y-49223842D01*
X89072990Y-48953589D01*
X88910475Y-48710368D01*
X88703632Y-48503525D01*
X88529240Y-48387000D01*
X88703632Y-48270475D01*
X88910475Y-48063632D01*
X89072990Y-47820411D01*
X89184932Y-47550158D01*
X89242000Y-47263260D01*
X89242000Y-46970740D01*
X89184932Y-46683842D01*
X89072990Y-46413589D01*
X88910475Y-46170368D01*
X88703632Y-45963525D01*
X88460411Y-45801010D01*
X88190158Y-45689068D01*
X87903260Y-45632000D01*
X87610740Y-45632000D01*
X87323842Y-45689068D01*
X87053589Y-45801010D01*
X86810368Y-45963525D01*
X86678513Y-46095380D01*
X86656502Y-46022820D01*
X86597537Y-45912506D01*
X86518185Y-45815815D01*
X86421494Y-45736463D01*
X86311180Y-45677498D01*
X86191482Y-45641188D01*
X86067000Y-45628928D01*
X84367000Y-45628928D01*
X84242518Y-45641188D01*
X84122820Y-45677498D01*
X84012506Y-45736463D01*
X83915815Y-45815815D01*
X83836463Y-45912506D01*
X83777498Y-46022820D01*
X83741188Y-46142518D01*
X83728928Y-46267000D01*
X83728928Y-47967000D01*
X83741188Y-48091482D01*
X83777498Y-48211180D01*
X83836463Y-48321494D01*
X83915815Y-48418185D01*
X84012506Y-48497537D01*
X84122820Y-48556502D01*
X84195380Y-48578513D01*
X84063525Y-48710368D01*
X83901010Y-48953589D01*
X83789068Y-49223842D01*
X83732000Y-49510740D01*
X83732000Y-49803260D01*
X83775790Y-50023408D01*
X82293003Y-51506196D01*
X82263999Y-51529999D01*
X82208871Y-51597174D01*
X82169026Y-51645724D01*
X82105890Y-51763842D01*
X82098454Y-51777754D01*
X82054997Y-51921015D01*
X82044000Y-52032668D01*
X82044000Y-52032678D01*
X82040324Y-52070000D01*
X82044000Y-52107323D01*
X82044001Y-56073196D01*
X77582408Y-60534791D01*
X77362260Y-60491000D01*
X77069740Y-60491000D01*
X76782842Y-60548068D01*
X76512589Y-60660010D01*
X76269368Y-60822525D01*
X76062525Y-61029368D01*
X75946000Y-61203760D01*
X75829475Y-61029368D01*
X75622632Y-60822525D01*
X75379411Y-60660010D01*
X75109158Y-60548068D01*
X74822260Y-60491000D01*
X74529740Y-60491000D01*
X74242842Y-60548068D01*
X73972589Y-60660010D01*
X73729368Y-60822525D01*
X73522525Y-61029368D01*
X73406000Y-61203760D01*
X73289475Y-61029368D01*
X73082632Y-60822525D01*
X72839411Y-60660010D01*
X72569158Y-60548068D01*
X72282260Y-60491000D01*
X71989740Y-60491000D01*
X71702842Y-60548068D01*
X71432589Y-60660010D01*
X71189368Y-60822525D01*
X70982525Y-61029368D01*
X70820010Y-61272589D01*
X70708068Y-61542842D01*
X70651000Y-61829740D01*
X60604000Y-61829740D01*
X60604000Y-59098721D01*
X62508000Y-59098721D01*
X62508000Y-59519279D01*
X62590047Y-59931756D01*
X62750988Y-60320302D01*
X62984637Y-60669983D01*
X63282017Y-60967363D01*
X63631698Y-61201012D01*
X64020244Y-61361953D01*
X64432721Y-61444000D01*
X64853279Y-61444000D01*
X65265756Y-61361953D01*
X65654302Y-61201012D01*
X66003983Y-60967363D01*
X66301363Y-60669983D01*
X66535012Y-60320302D01*
X66695953Y-59931756D01*
X66778000Y-59519279D01*
X66778000Y-59207061D01*
X68434000Y-59207061D01*
X68434000Y-59410939D01*
X68473774Y-59610898D01*
X68551795Y-59799256D01*
X68665063Y-59968774D01*
X68809226Y-60112937D01*
X68978744Y-60226205D01*
X69167102Y-60304226D01*
X69367061Y-60344000D01*
X69570939Y-60344000D01*
X69770898Y-60304226D01*
X69959256Y-60226205D01*
X70128774Y-60112937D01*
X70272937Y-59968774D01*
X70386205Y-59799256D01*
X70464226Y-59610898D01*
X70504000Y-59410939D01*
X70504000Y-59348801D01*
X73988802Y-55864000D01*
X74748289Y-55864000D01*
X74792226Y-55907937D01*
X74961744Y-56021205D01*
X75150102Y-56099226D01*
X75350061Y-56139000D01*
X75553939Y-56139000D01*
X75753898Y-56099226D01*
X75942256Y-56021205D01*
X76111774Y-55907937D01*
X76255937Y-55763774D01*
X76369205Y-55594256D01*
X76447226Y-55405898D01*
X76487000Y-55205939D01*
X76487000Y-55002061D01*
X76447226Y-54802102D01*
X76369205Y-54613744D01*
X76255937Y-54444226D01*
X76111774Y-54300063D01*
X75942256Y-54186795D01*
X75753898Y-54108774D01*
X75553939Y-54069000D01*
X75350061Y-54069000D01*
X75150102Y-54108774D01*
X74961744Y-54186795D01*
X74792226Y-54300063D01*
X74748289Y-54344000D01*
X73711322Y-54344000D01*
X73673999Y-54340324D01*
X73636676Y-54344000D01*
X73636667Y-54344000D01*
X73525014Y-54354997D01*
X73381753Y-54398454D01*
X73249723Y-54469026D01*
X73194009Y-54514750D01*
X73133999Y-54563999D01*
X73110201Y-54592997D01*
X69429199Y-58274000D01*
X69367061Y-58274000D01*
X69167102Y-58313774D01*
X68978744Y-58391795D01*
X68809226Y-58505063D01*
X68665063Y-58649226D01*
X68551795Y-58818744D01*
X68473774Y-59007102D01*
X68434000Y-59207061D01*
X66778000Y-59207061D01*
X66778000Y-59098721D01*
X66695953Y-58686244D01*
X66535012Y-58297698D01*
X66301363Y-57948017D01*
X66003983Y-57650637D01*
X65654302Y-57416988D01*
X65265756Y-57256047D01*
X64853279Y-57174000D01*
X64432721Y-57174000D01*
X64020244Y-57256047D01*
X63631698Y-57416988D01*
X63282017Y-57650637D01*
X62984637Y-57948017D01*
X62750988Y-58297698D01*
X62590047Y-58686244D01*
X62508000Y-59098721D01*
X60604000Y-59098721D01*
X60604000Y-55729000D01*
X62504928Y-55729000D01*
X62517188Y-55853482D01*
X62553498Y-55973180D01*
X62612463Y-56083494D01*
X62691815Y-56180185D01*
X62788506Y-56259537D01*
X62898820Y-56318502D01*
X63018518Y-56354812D01*
X63143000Y-56367072D01*
X64357250Y-56364000D01*
X64516000Y-56205250D01*
X64516000Y-54356000D01*
X64770000Y-54356000D01*
X64770000Y-56205250D01*
X64928750Y-56364000D01*
X66143000Y-56367072D01*
X66267482Y-56354812D01*
X66387180Y-56318502D01*
X66497494Y-56259537D01*
X66594185Y-56180185D01*
X66673537Y-56083494D01*
X66732502Y-55973180D01*
X66768812Y-55853482D01*
X66781072Y-55729000D01*
X66778000Y-54514750D01*
X66619250Y-54356000D01*
X64770000Y-54356000D01*
X64516000Y-54356000D01*
X62666750Y-54356000D01*
X62508000Y-54514750D01*
X62504928Y-55729000D01*
X60604000Y-55729000D01*
X60604000Y-52729000D01*
X62504928Y-52729000D01*
X62508000Y-53943250D01*
X62666750Y-54102000D01*
X64516000Y-54102000D01*
X64516000Y-52252750D01*
X64770000Y-52252750D01*
X64770000Y-54102000D01*
X66619250Y-54102000D01*
X66778000Y-53943250D01*
X66781072Y-52729000D01*
X66768812Y-52604518D01*
X66732502Y-52484820D01*
X66673537Y-52374506D01*
X66594185Y-52277815D01*
X66497494Y-52198463D01*
X66387180Y-52139498D01*
X66267482Y-52103188D01*
X66143000Y-52090928D01*
X64928750Y-52094000D01*
X64770000Y-52252750D01*
X64516000Y-52252750D01*
X64357250Y-52094000D01*
X63143000Y-52090928D01*
X63018518Y-52103188D01*
X62898820Y-52139498D01*
X62788506Y-52198463D01*
X62691815Y-52277815D01*
X62612463Y-52374506D01*
X62553498Y-52484820D01*
X62517188Y-52604518D01*
X62504928Y-52729000D01*
X60604000Y-52729000D01*
X60604000Y-46763606D01*
X62003606Y-45364000D01*
X100556394Y-45364000D01*
X101956001Y-46763607D01*
M02*
